<mxfile host="Electron" modified="2024-10-15T00:26:51.810Z" agent="Mozilla/5.0 (Windows NT 10.0; Win64; x64) AppleWebKit/537.36 (KHTML, like Gecko) draw.io/21.2.8 Chrome/112.0.5615.165 Electron/24.2.0 Safari/537.36" etag="cOYhFB808ZWsXijhdiTE" version="21.2.8" type="device">
  <diagram name="PÃ¡gina-1" id="u-rAJguVnBnGFT5fQt-j">
    <mxGraphModel dx="2514" dy="993" grid="1" gridSize="10" guides="1" tooltips="1" connect="1" arrows="1" fold="1" page="1" pageScale="1" pageWidth="827" pageHeight="1169" math="0" shadow="0">
      <root>
        <mxCell id="0" />
        <mxCell id="1" parent="0" />
        <mxCell id="oApBd-zSoWxOv1SW6AWs-1" value="&lt;font style=&quot;font-size: 14px;&quot;&gt;Producto&lt;/font&gt;" style="rounded=0;whiteSpace=wrap;html=1;" vertex="1" parent="1">
          <mxGeometry x="-130" y="230" width="150" height="80" as="geometry" />
        </mxCell>
        <mxCell id="oApBd-zSoWxOv1SW6AWs-2" value="ID" style="ellipse;whiteSpace=wrap;html=1;" vertex="1" parent="1">
          <mxGeometry x="-332.25" y="80" width="120" height="80" as="geometry" />
        </mxCell>
        <mxCell id="oApBd-zSoWxOv1SW6AWs-3" value="Nombre" style="ellipse;whiteSpace=wrap;html=1;" vertex="1" parent="1">
          <mxGeometry x="-332.25" y="370" width="120" height="80" as="geometry" />
        </mxCell>
        <mxCell id="oApBd-zSoWxOv1SW6AWs-7" value="&lt;font style=&quot;font-size: 14px;&quot;&gt;Proveedor&lt;/font&gt;" style="rounded=0;whiteSpace=wrap;html=1;" vertex="1" parent="1">
          <mxGeometry x="480" y="230" width="150" height="80" as="geometry" />
        </mxCell>
        <mxCell id="oApBd-zSoWxOv1SW6AWs-8" value="STOCK" style="ellipse;whiteSpace=wrap;html=1;" vertex="1" parent="1">
          <mxGeometry x="-115" y="70" width="120" height="80" as="geometry" />
        </mxCell>
        <mxCell id="oApBd-zSoWxOv1SW6AWs-9" value="Id_prov" style="ellipse;whiteSpace=wrap;html=1;" vertex="1" parent="1">
          <mxGeometry x="495" y="100" width="120" height="80" as="geometry" />
        </mxCell>
        <mxCell id="oApBd-zSoWxOv1SW6AWs-10" value="nombre_prov" style="ellipse;whiteSpace=wrap;html=1;" vertex="1" parent="1">
          <mxGeometry x="680" y="230" width="120" height="80" as="geometry" />
        </mxCell>
        <mxCell id="oApBd-zSoWxOv1SW6AWs-11" value="region" style="ellipse;whiteSpace=wrap;html=1;" vertex="1" parent="1">
          <mxGeometry x="680" y="400" width="120" height="80" as="geometry" />
        </mxCell>
        <mxCell id="oApBd-zSoWxOv1SW6AWs-12" value="" style="endArrow=none;html=1;rounded=0;exitX=1;exitY=0.5;exitDx=0;exitDy=0;entryX=0;entryY=0.5;entryDx=0;entryDy=0;" edge="1" parent="1" source="oApBd-zSoWxOv1SW6AWs-1" target="oApBd-zSoWxOv1SW6AWs-7">
          <mxGeometry width="50" height="50" relative="1" as="geometry">
            <mxPoint x="390" y="390" as="sourcePoint" />
            <mxPoint x="440" y="340" as="targetPoint" />
          </mxGeometry>
        </mxCell>
        <mxCell id="oApBd-zSoWxOv1SW6AWs-13" value="&lt;font style=&quot;font-size: 18px;&quot;&gt;Proveer&lt;/font&gt;" style="rhombus;whiteSpace=wrap;html=1;" vertex="1" parent="1">
          <mxGeometry x="190" y="215" width="120" height="110" as="geometry" />
        </mxCell>
        <mxCell id="oApBd-zSoWxOv1SW6AWs-14" value="&lt;font style=&quot;font-size: 14px;&quot;&gt;Enntrada de&lt;br&gt;producto&lt;br&gt;&lt;/font&gt;" style="rounded=0;whiteSpace=wrap;html=1;" vertex="1" parent="1">
          <mxGeometry x="-136.75" y="640" width="150" height="80" as="geometry" />
        </mxCell>
        <mxCell id="oApBd-zSoWxOv1SW6AWs-15" value="ID_ENTRADA" style="ellipse;whiteSpace=wrap;html=1;" vertex="1" parent="1">
          <mxGeometry x="102.25" y="640" width="120" height="80" as="geometry" />
        </mxCell>
        <mxCell id="oApBd-zSoWxOv1SW6AWs-16" value="ID_PRODUCTO" style="ellipse;whiteSpace=wrap;html=1;" vertex="1" parent="1">
          <mxGeometry x="-121.75" y="810" width="120" height="80" as="geometry" />
        </mxCell>
        <mxCell id="oApBd-zSoWxOv1SW6AWs-18" value="ID_PROVEEDOR" style="ellipse;whiteSpace=wrap;html=1;" vertex="1" parent="1">
          <mxGeometry x="102.25" y="770" width="120" height="80" as="geometry" />
        </mxCell>
        <mxCell id="oApBd-zSoWxOv1SW6AWs-19" value="FECHA" style="ellipse;whiteSpace=wrap;html=1;" vertex="1" parent="1">
          <mxGeometry x="-332.25" y="810" width="120" height="80" as="geometry" />
        </mxCell>
        <mxCell id="oApBd-zSoWxOv1SW6AWs-21" value="CANTIDAD" style="ellipse;whiteSpace=wrap;html=1;" vertex="1" parent="1">
          <mxGeometry x="-340" y="640" width="120" height="80" as="geometry" />
        </mxCell>
        <mxCell id="oApBd-zSoWxOv1SW6AWs-22" value="" style="endArrow=none;html=1;rounded=0;entryX=0.5;entryY=1;entryDx=0;entryDy=0;exitX=0.5;exitY=0;exitDx=0;exitDy=0;" edge="1" parent="1" source="oApBd-zSoWxOv1SW6AWs-24" target="oApBd-zSoWxOv1SW6AWs-1">
          <mxGeometry width="50" height="50" relative="1" as="geometry">
            <mxPoint x="-70" y="640" as="sourcePoint" />
            <mxPoint x="-20" y="590" as="targetPoint" />
          </mxGeometry>
        </mxCell>
        <mxCell id="oApBd-zSoWxOv1SW6AWs-25" value="" style="endArrow=none;html=1;rounded=0;entryX=0.5;entryY=1;entryDx=0;entryDy=0;exitX=0.552;exitY=-0.015;exitDx=0;exitDy=0;exitPerimeter=0;" edge="1" parent="1" source="oApBd-zSoWxOv1SW6AWs-14" target="oApBd-zSoWxOv1SW6AWs-24">
          <mxGeometry width="50" height="50" relative="1" as="geometry">
            <mxPoint x="-54" y="639" as="sourcePoint" />
            <mxPoint x="-55" y="310" as="targetPoint" />
          </mxGeometry>
        </mxCell>
        <mxCell id="oApBd-zSoWxOv1SW6AWs-24" value="&lt;span style=&quot;font-size: 18px;&quot;&gt;Entrar&lt;/span&gt;" style="rhombus;whiteSpace=wrap;html=1;" vertex="1" parent="1">
          <mxGeometry x="-115" y="420" width="120" height="110" as="geometry" />
        </mxCell>
        <mxCell id="oApBd-zSoWxOv1SW6AWs-27" value="&lt;font style=&quot;font-size: 15px;&quot;&gt;(M:M)&lt;/font&gt;" style="text;html=1;align=center;verticalAlign=middle;resizable=0;points=[];autosize=1;strokeColor=none;fillColor=none;" vertex="1" parent="1">
          <mxGeometry x="220" y="168" width="60" height="30" as="geometry" />
        </mxCell>
        <mxCell id="oApBd-zSoWxOv1SW6AWs-28" value="&lt;font style=&quot;font-size: 15px;&quot;&gt;(M:M)&lt;/font&gt;" style="text;html=1;align=center;verticalAlign=middle;resizable=0;points=[];autosize=1;strokeColor=none;fillColor=none;" vertex="1" parent="1">
          <mxGeometry x="42.25" y="460" width="60" height="30" as="geometry" />
        </mxCell>
        <mxCell id="oApBd-zSoWxOv1SW6AWs-29" value="" style="endArrow=none;html=1;rounded=0;entryX=0;entryY=0.5;entryDx=0;entryDy=0;exitX=1;exitY=0.5;exitDx=0;exitDy=0;" edge="1" parent="1" source="oApBd-zSoWxOv1SW6AWs-7" target="oApBd-zSoWxOv1SW6AWs-10">
          <mxGeometry width="50" height="50" relative="1" as="geometry">
            <mxPoint x="630" y="280" as="sourcePoint" />
            <mxPoint x="680" y="230" as="targetPoint" />
          </mxGeometry>
        </mxCell>
        <mxCell id="oApBd-zSoWxOv1SW6AWs-30" value="" style="endArrow=none;html=1;rounded=0;entryX=0.5;entryY=0;entryDx=0;entryDy=0;exitX=0.5;exitY=1;exitDx=0;exitDy=0;" edge="1" parent="1" source="oApBd-zSoWxOv1SW6AWs-9" target="oApBd-zSoWxOv1SW6AWs-7">
          <mxGeometry width="50" height="50" relative="1" as="geometry">
            <mxPoint x="530" y="200" as="sourcePoint" />
            <mxPoint x="580" y="200" as="targetPoint" />
          </mxGeometry>
        </mxCell>
        <mxCell id="oApBd-zSoWxOv1SW6AWs-34" value="" style="endArrow=none;html=1;rounded=0;" edge="1" parent="1">
          <mxGeometry width="50" height="50" relative="1" as="geometry">
            <mxPoint x="560" y="440" as="sourcePoint" />
            <mxPoint x="560" y="310" as="targetPoint" />
          </mxGeometry>
        </mxCell>
        <mxCell id="oApBd-zSoWxOv1SW6AWs-35" value="" style="endArrow=none;html=1;rounded=0;entryX=0;entryY=0.5;entryDx=0;entryDy=0;" edge="1" parent="1" target="oApBd-zSoWxOv1SW6AWs-11">
          <mxGeometry width="50" height="50" relative="1" as="geometry">
            <mxPoint x="560" y="440" as="sourcePoint" />
            <mxPoint x="678.8199999999999" y="440" as="targetPoint" />
          </mxGeometry>
        </mxCell>
        <mxCell id="oApBd-zSoWxOv1SW6AWs-36" value="" style="endArrow=none;html=1;rounded=0;exitX=0.5;exitY=0;exitDx=0;exitDy=0;" edge="1" parent="1" source="oApBd-zSoWxOv1SW6AWs-1">
          <mxGeometry width="50" height="50" relative="1" as="geometry">
            <mxPoint x="-55.59" y="250" as="sourcePoint" />
            <mxPoint x="-55.59" y="150" as="targetPoint" />
          </mxGeometry>
        </mxCell>
        <mxCell id="oApBd-zSoWxOv1SW6AWs-37" value="" style="endArrow=none;html=1;rounded=0;entryX=0;entryY=0.25;entryDx=0;entryDy=0;" edge="1" parent="1" target="oApBd-zSoWxOv1SW6AWs-1">
          <mxGeometry width="50" height="50" relative="1" as="geometry">
            <mxPoint x="-270" y="250" as="sourcePoint" />
            <mxPoint x="-160" y="260" as="targetPoint" />
          </mxGeometry>
        </mxCell>
        <mxCell id="oApBd-zSoWxOv1SW6AWs-38" value="" style="endArrow=none;html=1;rounded=0;entryX=0.5;entryY=1;entryDx=0;entryDy=0;" edge="1" parent="1" target="oApBd-zSoWxOv1SW6AWs-2">
          <mxGeometry width="50" height="50" relative="1" as="geometry">
            <mxPoint x="-272" y="248" as="sourcePoint" />
            <mxPoint x="-280" y="168" as="targetPoint" />
          </mxGeometry>
        </mxCell>
        <mxCell id="oApBd-zSoWxOv1SW6AWs-39" value="" style="endArrow=none;html=1;rounded=0;exitX=0.5;exitY=0;exitDx=0;exitDy=0;" edge="1" parent="1">
          <mxGeometry width="50" height="50" relative="1" as="geometry">
            <mxPoint x="-272.25" y="370" as="sourcePoint" />
            <mxPoint x="-270" y="280" as="targetPoint" />
          </mxGeometry>
        </mxCell>
        <mxCell id="oApBd-zSoWxOv1SW6AWs-40" value="" style="endArrow=none;html=1;rounded=0;entryX=-0.011;entryY=0.624;entryDx=0;entryDy=0;entryPerimeter=0;" edge="1" parent="1" target="oApBd-zSoWxOv1SW6AWs-1">
          <mxGeometry width="50" height="50" relative="1" as="geometry">
            <mxPoint x="-270" y="280" as="sourcePoint" />
            <mxPoint x="-180" y="300" as="targetPoint" />
          </mxGeometry>
        </mxCell>
        <mxCell id="oApBd-zSoWxOv1SW6AWs-41" value="" style="endArrow=none;html=1;rounded=0;exitX=1;exitY=0.5;exitDx=0;exitDy=0;entryX=0;entryY=0.5;entryDx=0;entryDy=0;" edge="1" parent="1" source="oApBd-zSoWxOv1SW6AWs-14" target="oApBd-zSoWxOv1SW6AWs-15">
          <mxGeometry width="50" height="50" relative="1" as="geometry">
            <mxPoint x="42.84" y="750" as="sourcePoint" />
            <mxPoint x="42.25" y="670" as="targetPoint" />
          </mxGeometry>
        </mxCell>
        <mxCell id="oApBd-zSoWxOv1SW6AWs-43" value="" style="endArrow=none;html=1;rounded=0;entryX=1;entryY=1;entryDx=0;entryDy=0;" edge="1" parent="1" target="oApBd-zSoWxOv1SW6AWs-14">
          <mxGeometry width="50" height="50" relative="1" as="geometry">
            <mxPoint x="13" y="810" as="sourcePoint" />
            <mxPoint x="5" y="720" as="targetPoint" />
          </mxGeometry>
        </mxCell>
        <mxCell id="oApBd-zSoWxOv1SW6AWs-44" value="" style="endArrow=none;html=1;rounded=0;exitX=0;exitY=0.5;exitDx=0;exitDy=0;" edge="1" parent="1" source="oApBd-zSoWxOv1SW6AWs-18">
          <mxGeometry width="50" height="50" relative="1" as="geometry">
            <mxPoint x="60.59" y="840" as="sourcePoint" />
            <mxPoint x="10" y="810" as="targetPoint" />
          </mxGeometry>
        </mxCell>
        <mxCell id="oApBd-zSoWxOv1SW6AWs-45" value="" style="endArrow=none;html=1;rounded=0;exitX=0.5;exitY=0;exitDx=0;exitDy=0;" edge="1" parent="1" source="oApBd-zSoWxOv1SW6AWs-16">
          <mxGeometry width="50" height="50" relative="1" as="geometry">
            <mxPoint x="-61.75" y="800" as="sourcePoint" />
            <mxPoint x="-62.34" y="720" as="targetPoint" />
          </mxGeometry>
        </mxCell>
        <mxCell id="oApBd-zSoWxOv1SW6AWs-46" value="" style="endArrow=none;html=1;rounded=0;exitX=1;exitY=0.5;exitDx=0;exitDy=0;entryX=0;entryY=0.5;entryDx=0;entryDy=0;" edge="1" parent="1" source="oApBd-zSoWxOv1SW6AWs-21" target="oApBd-zSoWxOv1SW6AWs-14">
          <mxGeometry width="50" height="50" relative="1" as="geometry">
            <mxPoint x="-179.41" y="740" as="sourcePoint" />
            <mxPoint x="-180" y="660" as="targetPoint" />
          </mxGeometry>
        </mxCell>
        <mxCell id="oApBd-zSoWxOv1SW6AWs-47" value="" style="endArrow=none;html=1;rounded=0;exitX=1;exitY=0.5;exitDx=0;exitDy=0;entryX=0;entryY=1;entryDx=0;entryDy=0;" edge="1" parent="1" source="oApBd-zSoWxOv1SW6AWs-19" target="oApBd-zSoWxOv1SW6AWs-14">
          <mxGeometry width="50" height="50" relative="1" as="geometry">
            <mxPoint x="-179.41" y="780" as="sourcePoint" />
            <mxPoint x="-180" y="700" as="targetPoint" />
          </mxGeometry>
        </mxCell>
      </root>
    </mxGraphModel>
  </diagram>
</mxfile>
